<mxfile host="app.diagrams.net" modified="2024-04-17T23:43:48.229Z" agent="Mozilla/5.0 (Macintosh; Intel Mac OS X 10_15_7) AppleWebKit/537.36 (KHTML, like Gecko) Chrome/124.0.0.0 Safari/537.36" version="24.2.5" etag="1UsWwSfattkwMYN29MCQ" type="github">
  <diagram name="PÃ¡gina-1" id="_4Nhc4b1fY-WB2GzDSU6">
    <mxGraphModel>
      <root>
        <mxCell id="0" />
        <mxCell id="1" parent="0" />
      </root>
    </mxGraphModel>
  </diagram>
</mxfile>
